<?xml version="1.0" encoding="utf-8"?>
<!-- Generator: Adobe Illustrator 26.3.1, SVG Export Plug-In . SVG Version: 6.00 Build 0)  -->
<svg version="1.1" id="Livello_1" xmlns="http://www.w3.org/2000/svg" xmlns:xlink="http://www.w3.org/1999/xlink" x="0px" y="0px"
	 viewBox="0 0 36.39 40.96" style="enable-background:new 0 0 36.39 40.96;" xml:space="preserve">
<style type="text/css">
	.st0{fill:#FFFFFF;}
	.st1{fill:#156F73;}
	.st2{fill:#E21F26;}
	.st3{fill:#266F75;}
	.st4{fill:#939392;}
</style>
<path class="st0" d="M32.61,40.96H3.78C1.69,40.96,0,39.26,0,37.17V3.78C0,1.69,1.69,0,3.78,0h28.83c2.09,0,3.78,1.69,3.78,3.78
	v33.39C36.39,39.26,34.7,40.96,32.61,40.96z"/>
<g>
	<g>
		<path class="st1" d="M12.74,37.17c0.05-0.04,0.17-0.16,0.37-0.16c0.25,0,0.44,0.2,0.44,0.59c0,0.5-0.29,0.71-0.61,0.71
			c-0.12,0-0.25-0.03-0.34-0.11c-0.07-0.06-0.07-0.1-0.07-0.24V36.5c0-0.04,0-0.05,0.04-0.05h0.12c0.04,0,0.05,0,0.05,0.05V37.17z
			 M12.74,37.93c0,0.06,0,0.24,0.23,0.24c0.2,0,0.38-0.16,0.38-0.5c0-0.25-0.09-0.49-0.33-0.49c-0.08,0-0.18,0.04-0.27,0.13V37.93z"
			/>
		<path class="st1" d="M14.22,38.46c-0.07,0.18-0.17,0.4-0.42,0.4c-0.03,0-0.17,0-0.17-0.11c0-0.05,0.04-0.1,0.1-0.1
			c0.02,0,0.11,0.02,0.13,0.02c0.1,0,0.17-0.08,0.26-0.38l-0.46-1.17c-0.01-0.03-0.01-0.03-0.01-0.04c0-0.03,0.03-0.03,0.04-0.03
			h0.14c0.04,0,0.04,0,0.05,0.04l0.33,0.92l0.31-0.92c0.01-0.04,0.02-0.04,0.04-0.04h0.12c0.02,0,0.03,0,0.03,0.03
			c0,0.01,0,0.01-0.01,0.04L14.22,38.46z"/>
		<path class="st1" d="M15.43,37.28c0-0.08,0-0.12,0.06-0.17c0.08-0.06,0.24-0.1,0.38-0.1c0.24,0,0.32,0.1,0.35,0.14
			c0.05-0.05,0.13-0.14,0.38-0.14c0.39,0,0.38,0.26,0.38,0.39v0.84c0,0.03-0.01,0.04-0.04,0.05h-0.12c-0.03,0-0.04,0-0.04-0.05
			v-0.78c0-0.13,0-0.31-0.23-0.31c-0.08,0-0.13,0.03-0.16,0.06c-0.07,0.06-0.07,0.12-0.07,0.2v0.84c0,0.03,0,0.05-0.04,0.05h-0.12
			c-0.03,0-0.05,0-0.05-0.04v-0.8c0-0.09,0-0.29-0.23-0.29c-0.23,0-0.23,0.18-0.23,0.26v0.84c0,0.04-0.01,0.05-0.05,0.05h-0.12
			c-0.03,0-0.04-0.01-0.04-0.05V37.28z"/>
		<path class="st1" d="M17.74,38.31c-0.36,0-0.54-0.33-0.54-0.65c0-0.33,0.2-0.65,0.54-0.65c0.37,0,0.53,0.36,0.54,0.64
			C18.28,37.98,18.09,38.31,17.74,38.31z M17.72,37.15c-0.19,0-0.31,0.2-0.31,0.48c0,0.33,0.16,0.53,0.33,0.53
			c0.18,0,0.32-0.2,0.3-0.53C18.03,37.31,17.88,37.15,17.72,37.15z"/>
		<path class="st1" d="M19.44,38.24c0,0.02,0,0.04-0.03,0.05h-0.13c-0.04,0-0.05,0-0.05-0.05v-0.8c0-0.11,0-0.29-0.28-0.29
			c-0.25,0-0.26,0.15-0.26,0.21v0.88c0,0.04-0.02,0.05-0.05,0.05h-0.12c-0.03,0-0.04,0-0.04-0.05v-0.96c0-0.09,0.01-0.13,0.09-0.17
			c0.16-0.08,0.38-0.08,0.41-0.08c0.45,0,0.45,0.25,0.45,0.4V38.24z"/>
		<path class="st1" d="M19.96,37.15v0.78c0,0.1,0,0.13,0.03,0.17c0.03,0.05,0.07,0.08,0.14,0.08c0.01,0,0.05,0,0.06,0
			c0.04,0,0.05,0.03,0.05,0.05c0,0.06-0.13,0.08-0.18,0.08c-0.11,0-0.2-0.05-0.25-0.11c-0.05-0.07-0.06-0.15-0.06-0.23v-0.82h-0.13
			c-0.03,0-0.04,0-0.04-0.04c0-0.06,0-0.07,0.04-0.07h0.13V36.9c0-0.04,0.01-0.05,0.04-0.08l0.11-0.1c0.02-0.02,0.03-0.03,0.04-0.03
			c0.02,0,0.03,0.03,0.03,0.06v0.29h0.21c0.03,0,0.04,0,0.04,0.03c0,0.06,0,0.07-0.04,0.07H19.96z"/>
		<path class="st1" d="M20.47,37.63c0.02,0.34,0.19,0.49,0.37,0.49c0.14,0,0.25-0.08,0.33-0.21c0.03-0.06,0.04-0.07,0.07-0.07
			c0.01,0,0.05,0.01,0.05,0.06c0,0.06-0.1,0.42-0.47,0.42c-0.14,0-0.33-0.06-0.44-0.28c-0.06-0.12-0.08-0.26-0.08-0.37
			c0-0.17,0.03-0.3,0.08-0.39c0.03-0.05,0.15-0.27,0.44-0.27c0.37,0,0.45,0.33,0.45,0.43c0,0.07-0.04,0.07-0.07,0.08L20.47,37.63z
			 M21.03,37.42c-0.01-0.15-0.12-0.27-0.25-0.27c-0.19,0-0.29,0.15-0.31,0.36L21.03,37.42z"/>
		<path class="st1" d="M21.92,37.15c-0.16,0-0.31,0.16-0.31,0.45c0,0.35,0.18,0.52,0.35,0.52c0.17,0,0.24-0.13,0.28-0.19
			c0.03-0.05,0.04-0.07,0.07-0.07c0.01,0,0.05,0,0.05,0.06c0,0.1-0.12,0.39-0.45,0.39c-0.32,0-0.5-0.28-0.5-0.64
			c0-0.38,0.19-0.66,0.53-0.66c0.27,0,0.4,0.21,0.4,0.3c0,0.08-0.06,0.1-0.1,0.1c-0.05,0-0.08-0.03-0.1-0.07
			C22.1,37.25,22.05,37.15,21.92,37.15z"/>
		<path class="st1" d="M23,37.15c-0.16,0-0.31,0.16-0.31,0.45c0,0.35,0.18,0.52,0.35,0.52c0.17,0,0.24-0.13,0.28-0.19
			c0.03-0.05,0.04-0.07,0.07-0.07c0.01,0,0.05,0,0.05,0.06c0,0.1-0.12,0.39-0.45,0.39c-0.32,0-0.5-0.28-0.5-0.64
			c0-0.38,0.19-0.66,0.53-0.66c0.27,0,0.4,0.21,0.4,0.3c0,0.08-0.06,0.1-0.1,0.1c-0.05,0-0.08-0.03-0.1-0.07
			C23.18,37.25,23.13,37.15,23,37.15z"/>
		<path class="st1" d="M24.38,37.46c0-0.05,0-0.12-0.03-0.17c-0.04-0.08-0.12-0.12-0.21-0.12c-0.11,0-0.21,0.06-0.29,0.13v0.93
			c0,0.04-0.01,0.06-0.04,0.06h-0.13c-0.04,0-0.04-0.01-0.04-0.05V36.5c0-0.03,0.01-0.04,0.04-0.04h0.13c0.04,0,0.04,0.01,0.04,0.04
			v0.67c0.04-0.04,0.15-0.15,0.36-0.15c0.37,0,0.37,0.32,0.38,0.42v0.79c0,0.04,0,0.06-0.04,0.06h-0.12c-0.04,0-0.05,0-0.05-0.05
			V37.46z"/>
		<path class="st1" d="M24.98,36.83c-0.08,0-0.13-0.06-0.13-0.12c0-0.07,0.05-0.13,0.13-0.13c0.07,0,0.12,0.05,0.13,0.12
			C25.1,36.77,25.06,36.83,24.98,36.83z M25.08,38.24c0,0.04-0.01,0.04-0.05,0.04H24.9c-0.04,0-0.04-0.01-0.04-0.04v-1.15
			c0-0.03,0-0.05,0.04-0.05h0.12c0.04,0,0.05,0.01,0.05,0.05V38.24z"/>
		<path class="st1" d="M26.13,38.03c0,0.11-0.01,0.17-0.1,0.22c-0.09,0.05-0.23,0.06-0.33,0.06c-0.06,0-0.41,0-0.41-0.33
			c0-0.28,0.27-0.35,0.64-0.47V37.4c0-0.09,0-0.26-0.18-0.26c-0.14,0-0.18,0.11-0.2,0.16c-0.02,0.05-0.04,0.1-0.11,0.1
			c-0.03,0-0.09-0.02-0.09-0.1c0-0.14,0.18-0.29,0.43-0.29c0.35,0,0.35,0.26,0.35,0.38V38.03z M25.93,37.63
			c-0.26,0.08-0.43,0.14-0.43,0.32c0,0.02,0,0.23,0.24,0.23c0.18,0,0.19-0.11,0.19-0.17V37.63z"/>
		<path class="st1" d="M27.74,37.2c0.03,0.05,0.08,0.11,0.08,0.26c0,0.29-0.24,0.41-0.43,0.41c-0.06,0-0.1-0.01-0.14-0.02
			c-0.06,0.05-0.09,0.1-0.09,0.15c0,0.08,0.1,0.08,0.24,0.09l0.25,0.01c0.1,0.01,0.38,0.03,0.38,0.29c0,0.16-0.17,0.46-0.69,0.46
			c-0.1,0-0.17-0.01-0.22-0.03c-0.15-0.04-0.24-0.14-0.24-0.25c0-0.13,0.11-0.24,0.25-0.33c-0.06-0.02-0.18-0.04-0.18-0.16
			c0-0.1,0.14-0.23,0.21-0.28c-0.04-0.03-0.11-0.06-0.16-0.17c-0.03-0.07-0.05-0.14-0.05-0.21c0-0.24,0.17-0.41,0.43-0.41
			c0.08,0,0.13,0.02,0.18,0.03c0.05,0.02,0.08,0.03,0.14,0.03c0.04,0,0.22-0.03,0.23-0.03c0.03,0,0.03,0.07,0.03,0.07
			c0,0.02-0.01,0.02-0.03,0.02L27.74,37.2z M27.09,38.49c0,0.15,0.17,0.21,0.34,0.21c0.18,0,0.41-0.11,0.41-0.26
			c0-0.14-0.16-0.16-0.23-0.16c-0.05,0-0.31-0.01-0.37-0.02C27.16,38.33,27.09,38.4,27.09,38.49z M27.51,37.18
			c-0.03-0.03-0.08-0.04-0.13-0.04c-0.11,0-0.23,0.06-0.23,0.27c0,0.22,0.13,0.33,0.26,0.33c0.1,0,0.22-0.06,0.22-0.26
			c0-0.03,0-0.06-0.01-0.09C27.59,37.24,27.53,37.19,27.51,37.18z"/>
		<path class="st1" d="M28.32,38.25c0,0.04-0.01,0.04-0.04,0.04h-0.12c-0.03,0-0.05,0-0.05-0.04v-1c0-0.08,0.01-0.11,0.06-0.14
			c0.07-0.04,0.22-0.08,0.38-0.08c0.12,0,0.24,0.03,0.24,0.14c0,0.06-0.04,0.1-0.1,0.1c-0.04,0-0.06-0.02-0.1-0.07
			c-0.03-0.03-0.06-0.06-0.13-0.06c-0.14,0-0.14,0.11-0.14,0.17V38.25z"/>
		<path class="st1" d="M29.37,38.31c-0.36,0-0.54-0.33-0.54-0.65c0-0.33,0.2-0.65,0.54-0.65c0.37,0,0.53,0.36,0.54,0.64
			C29.92,37.98,29.72,38.31,29.37,38.31z M29.36,37.15c-0.19,0-0.31,0.2-0.31,0.48c0,0.33,0.16,0.53,0.33,0.53
			c0.18,0,0.32-0.2,0.3-0.53C29.67,37.31,29.52,37.15,29.36,37.15z"/>
		<path class="st1" d="M31.04,37.99c0,0.12-0.01,0.19-0.1,0.24c-0.04,0.02-0.17,0.08-0.39,0.08c-0.19,0-0.28-0.05-0.34-0.09
			c-0.09-0.07-0.11-0.17-0.11-0.29v-0.85c0-0.03,0.01-0.04,0.04-0.04h0.12c0.03,0,0.05,0,0.05,0.05v0.79c0,0.11,0,0.29,0.27,0.29
			c0.24,0,0.24-0.14,0.24-0.26V37.1c0-0.02,0-0.04,0.03-0.05c0.01,0,0.08,0,0.13,0c0.04,0,0.05,0.01,0.05,0.05V37.99z"/>
		<path class="st1" d="M31.3,37.36c0-0.11,0-0.15,0.03-0.19c0.05-0.08,0.23-0.15,0.44-0.15c0.44,0,0.55,0.33,0.55,0.59
			c0,0.3-0.17,0.7-0.55,0.7c-0.14,0-0.21-0.05-0.26-0.08v0.58c0,0.03-0.01,0.04-0.04,0.04h-0.12c-0.04,0-0.05-0.01-0.05-0.04V37.36z
			 M31.51,38.09c0.07,0.04,0.15,0.08,0.24,0.08c0.19,0,0.35-0.18,0.35-0.52c0-0.29-0.14-0.5-0.38-0.5c-0.21,0-0.21,0.13-0.21,0.22
			V38.09z"/>
	</g>
</g>
<g>
	<g>
		<path class="st2" d="M21.36,20.06l-5.41,0.14l-1.27,3.4c3.89-0.79,7.36,0.76,6.96,4.53c-0.55,5.27-6.98,6.3-9.24,5.87l0.36-0.19
			c1.94,0.11,6.61-1.6,7.15-5.58c0.4-2.92-2.45-4.39-6.28-3.32l-0.2-0.09L15.59,19l4.55-0.17c0.96,0.03,1.74-0.57,2.13-1.2l0,0
			L21.36,20.06z"/>
		<path class="st2" d="M30.71,28.2v4.22c0.01,0.68,0.56,1.22,1.21,1.22h0.24l0,0.23h-4.34l0-0.23h0.24c0.65,0,1.19-0.5,1.21-1.18
			V28.2h-6.82v-0.23l8.05-10.37h0.21v9.34h0.96c0.81,0,0.94-0.14,1.2-0.46h0.22l-0.46,1.71H30.71z M29.29,26.95v-6.66l-5.18,6.66
			H29.29z"/>
	</g>
	<g>
		<g>
			<polygon class="st3" points="7.43,15.84 3.46,15.36 3.6,14.56 7.57,15.04 			"/>
			<polygon class="st3" points="7.16,17.19 3.19,16.71 3.34,15.91 7.31,16.39 			"/>
			<polygon class="st4" points="6.9,18.51 2.93,18.03 3.08,17.23 7.05,17.71 			"/>
			<polygon class="st4" points="6.64,19.84 2.67,19.36 2.82,18.56 6.79,19.04 			"/>
			<polygon class="st2" points="6.38,21.15 2.41,20.67 2.56,19.87 6.53,20.35 			"/>
			<polygon class="st2" points="6.12,22.52 2.15,22.04 2.29,21.24 6.26,21.72 			"/>
		</g>
		<path class="st3" d="M14.26,15.74l-2.16-0.58c4.57-9.67-6.88-11.5-6.88-11.5l-2.17,9.62l0.95,0.18c0,0,0.18-1.13,1.82-0.74
			c1.78,0.43,1.56,1.64,1.56,1.64s-1.7,7.86-1.77,10.04c-0.59,6.54,3.18,8.42,5.37,9.17c-4.72-3.52-3.51-9.35-2.91-12.49
			c0.61-3.14,1.1-4.43,1.51-5.92c0.6,0.88,0.72,1.93,0.72,1.93c0.86-0.47,1.43-1.2,1.43-1.2l2.25,0.6L14.26,15.74z"/>
	</g>
	<g>
		<path class="st3" d="M17.12,7.62c1.02,0,1.67,0.47,1.67,1.25c0,1.12-1.11,1.61-2.11,1.13V9.94c0,0,1.16,0.31,1.53-0.74
			c0.04-0.1,0.05-0.27,0.05-0.4c0-0.59-0.44-0.96-1.15-0.96H16.4v3.7c0.01,0.22,0.18,0.39,0.42,0.39h0.1l0,0.07h-1.52l0-0.07h0.1
			c0.24,0,0.42-0.17,0.42-0.39V8.08c0-0.22-0.18-0.39-0.42-0.39h-0.1l0-0.07L17.12,7.62z"/>
		<path class="st3" d="M22.68,10.96l-0.4,1.05H19.3l0-0.07h0.1c0.24,0,0.41-0.17,0.42-0.39V8.09c0-0.22-0.2-0.4-0.44-0.4H19.3
			l0-0.07h1.52l0,0.07h-0.09c-0.24,0-0.43,0.18-0.44,0.4v3.7h1.14c0.7-0.01,0.95-0.35,1.16-0.83L22.68,10.96z"/>
		<path class="st3" d="M26.93,11.51c0.15,0.3,0.37,0.43,0.56,0.43h0.06v0.07h-1.5v-0.07h0.06c0.17,0,0.35-0.16,0.26-0.44l-0.4-0.97
			h-1.85l-0.4,0.95c-0.11,0.29,0.08,0.46,0.25,0.46h0.06v0.07h-1.39v-0.07h0.06c0.19,0,0.42-0.12,0.57-0.42l1.51-3.24
			c0,0,0.27-0.56,0.28-0.75h0.07L26.93,11.51z M25.88,10.31l-0.82-2l-0.85,2H25.88z"/>
		<path class="st3" d="M31.42,7.62V7.7h-0.09c-0.28,0-0.53,0.18-0.67,0.37l-1.4,2.13v1.34c0,0.22,0.19,0.4,0.43,0.4h0.08l0,0.07
			h-1.5l0-0.07h0.08c0.23,0,0.42-0.18,0.43-0.4v-1.35l-1.35-2.12c-0.15-0.22-0.39-0.37-0.67-0.37h-0.09V7.62h1.7V7.7h-0.08
			c-0.2,0-0.31,0.18-0.25,0.35l1.06,1.9l1.14-1.89c0.08-0.18-0.05-0.36-0.25-0.36h-0.08V7.62H31.42z"/>
		<path class="st2" d="M19.41,16.14C19.1,16.53,18.46,17,17.52,17c-1.31-0.01-2.18-0.8-2.18-2.09c0-1.29,0.87-2.09,2.18-2.09
			c0.61,0,1.1,0.13,1.55,0.4l0.15,0.94h-0.06c-0.19-0.78-0.72-1.14-1.65-1.14c-1.02,0-1.69,0.72-1.69,1.89
			c0,1.17,0.68,1.89,1.7,1.89c0.55,0,1.04-0.17,1.46-0.58l0.01-0.88c0-0.17-0.12-0.26-0.31-0.26h-0.09v-0.07h1.22v0.07h-0.09
			c-0.19,0-0.3,0.09-0.3,0.26L19.41,16.14z"/>
		<path class="st2" d="M24.62,14.91c0,1.24-1,2.09-2.24,2.09s-2.24-0.85-2.24-2.09c0-1.24,1-2.09,2.24-2.09S24.62,13.68,24.62,14.91
			z M24.13,14.91c0-1.12-0.77-1.89-1.75-1.89c-0.98,0-1.75,0.76-1.75,1.89c0,1.12,0.77,1.89,1.75,1.89
			C23.35,16.8,24.13,16.04,24.13,14.91z"/>
		<path class="st2" d="M28.14,15.95l-0.37,0.95h-2.7l0-0.07h0.09c0.21,0,0.38-0.16,0.38-0.35v-3.14c0-0.2-0.18-0.36-0.4-0.36h-0.08
			l0-0.07h1.38l0,0.07h-0.08c-0.22,0-0.39,0.16-0.4,0.36v3.36h1.04c0.64-0.01,0.87-0.32,1.05-0.75L28.14,15.95z"/>
		<path class="st2" d="M30.3,12.92c0.27,0,0.63-0.06,0.75-0.1v0.75l-0.07,0v-0.1c0-0.19-0.13-0.34-0.33-0.34h-1.4v1.69h1.15
			c0.19,0,0.27-0.13,0.27-0.28v-0.08l0.07,0v0.93l-0.07,0v-0.08c0-0.15-0.08-0.27-0.25-0.28h-1.17v1.47
			c0.01,0.2,0.17,0.36,0.39,0.36h0.09l0,0.07h-1.39l0-0.07h0.09c0.22,0,0.38-0.16,0.39-0.35v-3.16c-0.01-0.2-0.17-0.35-0.39-0.35
			h-0.09l0-0.07h0.91L30.3,12.92z"/>
	</g>
</g>
</svg>
